<svg width="272" height="62" viewBox="0 0 272 62" fill="none" xmlns="http://www.w3.org/2000/svg">
<path d="M69.0541 40.0599L70.4104 35.7712H76.9905L78.3467 40.0599H82.4907L76.1868 21.2773H71.214L64.9102 40.0599H69.0541ZM71.3898 32.6709L73.6251 25.5661H73.7758L76.011 32.6709H71.3898Z" fill="white"/>
<path d="M84.6704 40.0599H88.4126V37.8122H88.5884C89.1158 38.9748 90.2711 40.2924 92.4812 40.2924C95.5955 40.2924 98.0316 37.7605 98.0316 33.0326C98.0316 28.1755 95.495 25.7728 92.4812 25.7728C90.1957 25.7728 89.0907 27.1937 88.5884 28.3305H88.4628V21.2773H84.6704V40.0599ZM88.3874 33.0067C88.3874 30.5007 89.4172 28.8989 91.2757 28.8989C93.1593 28.8989 94.1639 30.5782 94.1639 33.0067C94.1639 35.4611 93.1342 37.1663 91.2757 37.1663C89.4423 37.1663 88.3874 35.5386 88.3874 33.0067Z" fill="white"/>
<path d="M111.956 29.9902C111.63 27.4066 109.595 25.7789 106.13 25.7789C102.613 25.7789 100.303 27.4583 100.328 30.171C100.303 32.2895 101.609 33.6588 104.271 34.2014L106.657 34.6922C107.837 34.9248 108.39 35.3898 108.415 36.0874C108.39 36.94 107.511 37.5342 106.18 37.5342C104.824 37.5342 103.919 36.94 103.693 35.7773L99.9513 35.984C100.303 38.6709 102.538 40.3503 106.18 40.3503C109.721 40.3503 112.258 38.4901 112.283 35.6998C112.258 33.6588 110.977 32.4445 108.315 31.8762L105.828 31.3594C104.547 31.0752 104.095 30.636 104.095 29.9643C104.095 29.1117 105.025 28.5692 106.18 28.5692C107.511 28.5692 108.289 29.2926 108.49 30.2227L111.956 29.9902Z" fill="white"/>
<path d="M121.951 25.9799H119.389V22.5955H115.597V25.9799H113.713V28.8994H115.597V36.2367C115.572 39.0011 117.405 40.3704 120.142 40.2412C121.122 40.2154 121.825 40.0087 122.202 39.8795L121.624 36.9859C121.423 37.0118 121.021 37.1151 120.67 37.1151C119.916 37.1151 119.389 36.8051 119.389 35.72V28.8994H121.951V25.9799Z" fill="white"/>
<path d="M124.414 40.0661H128.232V32.0828C128.232 30.3519 129.462 29.1634 131.12 29.1634C131.647 29.1634 132.376 29.2668 132.727 29.3701V25.9081C132.401 25.8306 131.924 25.7789 131.547 25.7789C130.015 25.7789 128.759 26.6832 128.257 28.44H128.106V25.9856H124.414V40.0661Z" fill="white"/>
<path d="M138.198 40.3244C140.232 40.3244 141.538 39.4202 142.191 38.1026H142.317V40.0661H145.908V30.5585C145.908 27.1999 143.145 25.7789 140.107 25.7789C136.816 25.7789 134.657 27.4066 134.129 29.9643L137.645 30.2743C137.896 29.3443 138.725 28.6467 140.081 28.6467C141.362 28.6467 142.116 29.3184 142.116 30.481V30.5327C142.116 31.437 141.186 31.5403 138.801 31.7987C136.088 32.057 133.652 32.9871 133.652 36.1391C133.652 38.9293 135.586 40.3244 138.198 40.3244ZM139.278 37.6375C138.122 37.6375 137.269 37.0691 137.269 36.0099C137.269 34.8989 138.148 34.3564 139.504 34.1755C140.333 34.0464 141.689 33.8397 142.141 33.5296V35.0281C142.141 36.5008 140.96 37.6375 139.278 37.6375Z" fill="white"/>
<path d="M155.063 40.3503C158.705 40.3503 160.99 38.1284 161.166 34.8989H157.6C157.374 36.3974 156.394 37.25 155.114 37.25C153.33 37.25 152.175 35.7257 152.175 33.0129C152.175 30.3519 153.33 28.8275 155.114 28.8275C156.495 28.8275 157.399 29.7835 157.6 31.1786H161.166C161.016 27.9233 158.63 25.7789 155.038 25.7789C150.894 25.7789 148.307 28.75 148.307 33.0646C148.307 37.3533 150.844 40.3503 155.063 40.3503Z" fill="white"/>
<path d="M170.899 25.9799H168.337V22.5955H164.545V25.9799H162.661V28.8994H164.545V36.2367C164.52 39.0011 166.353 40.3704 169.091 40.2412C170.07 40.2154 170.773 40.0087 171.15 39.8795L170.572 36.9859C170.371 37.0118 169.97 37.1151 169.618 37.1151C168.865 37.1151 168.337 36.8051 168.337 35.72V28.8994H170.899V25.9799Z" fill="white"/>
<path d="M179.426 40.3503C183.57 40.3503 186.157 37.405 186.157 33.0646C186.157 28.6984 183.57 25.7789 179.426 25.7789C175.257 25.7789 172.67 28.6984 172.67 33.0646C172.67 37.405 175.257 40.3503 179.426 40.3503ZM179.451 37.3017C177.517 37.3017 176.538 35.519 176.538 33.0388C176.538 30.5844 177.517 28.7759 179.451 28.7759C181.309 28.7759 182.314 30.5844 182.314 33.0388C182.314 35.519 181.309 37.3017 179.451 37.3017Z" fill="white"/>
<path d="M204.447 26.6785H208.139C208.089 23.3199 205.402 21.0205 201.358 21.0205C197.34 21.0205 194.401 23.294 194.426 26.7044C194.426 29.4688 196.31 31.0706 199.399 31.8198L201.383 32.3365C203.367 32.8274 204.497 33.4216 204.497 34.6876C204.497 36.0569 203.217 36.987 201.258 36.987C199.248 36.987 197.817 36.031 197.691 34.1709H193.949C194.05 38.2271 196.862 40.3198 201.308 40.3198C205.753 40.3198 208.39 38.1237 208.39 34.6876C208.39 31.5615 206.08 29.908 202.915 29.1588L201.283 28.7712C199.675 28.3837 198.369 27.7895 198.394 26.446C198.394 25.2317 199.424 24.3275 201.308 24.3275C203.166 24.3275 204.296 25.2059 204.447 26.6785Z" fill="white"/>
<path d="M218.194 25.9799H215.632V22.5955H211.84V25.9799H209.956V28.8994H211.84V36.2367C211.815 39.0011 213.648 40.3704 216.385 40.2412C217.365 40.2154 218.068 40.0087 218.445 39.8795L217.867 36.9859C217.666 37.0118 217.265 37.1151 216.913 37.1151C216.159 37.1151 215.632 36.8051 215.632 35.72V28.8994H218.194V25.9799Z" fill="white"/>
<path d="M229.447 34.0667C229.473 35.9527 228.192 36.9344 226.836 36.9344C225.404 36.9344 224.475 35.901 224.475 34.2475V25.9801H220.657V34.9451C220.682 38.2262 222.541 40.2414 225.304 40.2414C227.363 40.2414 228.845 39.1563 229.473 37.5028H229.598V40.0605H233.24V25.9801H229.447V34.0667Z" fill="white"/>
<path d="M241.321 40.2924C243.531 40.2924 244.686 38.9748 245.214 37.8122H245.39V40.0599H249.132V21.2773H245.339V28.3305H245.214C244.711 27.1937 243.606 25.7728 241.321 25.7728C238.307 25.7728 235.771 28.1755 235.771 33.0326C235.771 37.7605 238.207 40.2924 241.321 40.2924ZM242.526 37.1663C240.668 37.1663 239.663 35.4611 239.663 33.0067C239.663 30.5782 240.643 28.8989 242.526 28.8989C244.385 28.8989 245.415 30.5007 245.415 33.0067C245.415 35.5386 244.36 37.1663 242.526 37.1663Z" fill="white"/>
<path d="M252.238 40.0615H256.056V25.981H252.238V40.0615ZM254.147 24.1467C255.277 24.1467 256.206 23.2683 256.206 22.1832C256.206 21.0981 255.277 20.1938 254.147 20.1938C253.042 20.1938 252.113 21.0981 252.113 22.1832C252.113 23.2683 253.042 24.1467 254.147 24.1467Z" fill="white"/>
<path d="M265.269 40.3503C269.413 40.3503 272 37.405 272 33.0646C272 28.6984 269.413 25.7789 265.269 25.7789C261.1 25.7789 258.513 28.6984 258.513 33.0646C258.513 37.405 261.1 40.3503 265.269 40.3503ZM265.294 37.3017C263.36 37.3017 262.381 35.519 262.381 33.0388C262.381 30.5844 263.36 28.7759 265.294 28.7759C267.153 28.7759 268.157 30.5844 268.157 33.0388C268.157 35.519 267.153 37.3017 265.294 37.3017Z" fill="white"/>
<path d="M25.9026 3.65427L11.55 53.9535L13.6339 55.1381L27.9865 4.83882L25.9026 3.65427ZM29.9757 5.96954L15.6231 56.2688L17.707 57.4533L32.0596 7.15409L29.9757 5.96954ZM49.5226 50.7267L51.6065 51.9112L36.1327 9.46935L34.1435 8.33864L19.7909 58.6379L21.8748 59.8224L26.3853 43.8403L39.224 40.4241L41.2817 46.0423L43.3656 47.2268L40.7256 40.0245L42.2272 39.625L45.3548 48.3576L47.4387 49.5421L43.7288 39.2254L45.2304 38.8258L49.5226 50.7267ZM26.8738 42.0503L27.4177 40.1665L42.5838 36.131L34.7192 14.4302L35.426 11.9498L44.6677 37.3156L26.8738 42.0503ZM38.5107 33.8157L33.27 19.5587L34.0322 16.9845L40.4999 34.9464L27.9616 38.2827L28.45 36.4928L38.5107 33.8157ZM36.4268 32.6312L28.9939 34.609L32.5633 22.0392L36.4268 32.6312Z" fill="url(#paint0_linear)"/>
<defs>
<linearGradient id="paint0_linear" x1="6.84555" y1="36.2733" x2="44.761" y2="26.1845" gradientUnits="userSpaceOnUse">
<stop stop-color="#A952BC"/>
<stop offset="1" stop-color="#FF001A"/>
</linearGradient>
</defs>
</svg>
