<svg width="92" height="43" viewBox="0 0 92 43" fill="none" xmlns="http://www.w3.org/2000/svg">
<path d="M6.62884 6.11325H0V0.466265H20.7087V6.11325H14.234V42.4301H6.62884V6.11325Z" fill="white"/>
<path d="M29.1967 0.466265H37.3157L45.6403 42.4301H38.6004L36.956 32.7422H29.7105L28.0148 42.4301H20.8721L29.1967 0.466265ZM36.1338 27.8723L33.3076 10.2578L30.4813 27.8723H36.1338Z" fill="white"/>
<path d="M51.5176 6.11325H44.8888V0.466265H65.5975V6.11325H59.1228V42.4301H51.5176V6.11325Z" fill="white"/>
<path d="M80.027 43C75.7105 43 72.6273 41.843 70.7774 39.5289C68.9275 37.1803 68.0026 33.761 68.0026 29.2711V13.5217C68.0026 9.06627 68.9275 5.6988 70.7774 3.41928C72.6273 1.13976 75.7105 0 80.027 0C84.3092 0 87.3752 1.13976 89.2251 3.41928C91.0751 5.6988 92 9.06627 92 13.5217V29.2711C92 33.7265 91.0579 37.1285 89.1737 39.4771C87.3238 41.8257 84.2749 43 80.027 43ZM80.027 37.353C81.7056 37.353 82.8361 36.8177 83.4185 35.747C84.0009 34.6763 84.292 33.1221 84.292 31.0843V11.7602C84.292 9.72249 84.0009 8.18554 83.4185 7.1494C82.8704 6.11325 81.7399 5.59518 80.027 5.59518C78.3141 5.59518 77.1665 6.13053 76.5841 7.20121C76.0017 8.23735 75.7105 9.75703 75.7105 11.7602V31.0843C75.7105 33.1221 76.0017 34.6763 76.5841 35.747C77.1665 36.8177 78.3141 37.353 80.027 37.353Z" fill="white"/>
</svg>
